# xmcd
#
# Track frame offsets:
#	150
#	14047
#	26337
#	40242
#	51797
#	64640
#	73757
#	86800
#	105882
#	121027
#	134847
#	148887
#	162840
#	175575
#	188127
#	203077
#	216860
#	230395
#	243302
#	255700
#	268407
#	284545
#
# Disc length: 3956
#
# Revision: 1
# Processed by: cddbd v1.5.1PL0 Copyright (c) Steve Scherf et al.
# Submitted via: CDex 1.50beta9
# Normalized: r0:TDELIM( - )
#
DISCID=480f7216
DTITLE=Miscellaneous - Bop, Look And Listen
DYEAR=1949
DGENRE=Jazz
TTITLE0=Swedish Paris Festival Group - Body And Soul
TTITLE1=Ella Fitzgerald and Louis Jordan - Baby It's Cold Outside
TTITLE2=Errol Garner - Confessin'
TTITLE3=MIles Davis - Birth Of The Cool Move
TTITLE4=Sidney Bechet - Les Oignons
TTITLE5=The King Cole Trio - Kee-mo Ky-mo (The Magic Song)
TTITLE6=Reinhold Svenssons Kvartett - Memories Of Paris
TTITLE7=Metronome All Star Band - Victory Ball
TTITLE8=Louis Armstrong and Billie Holiday - My Sweet Hunk O' Trash
TTITLE9=Putte Wickmans Orkester - Some Of These Days
TTITLE10=Bud Powell's Modernists - Wail
TTITLE11=Arne Domnerus Favourite Five - I'v Got My Love To Keep Me Warm
TTITLE12=Duke Ellington and his Famous Orchestra - Snibor
TTITLE13=Art Tatum - Nice Work If You Can Get It
TTITLE14=Sarah Vaughn - Black Coffee
TTITLE15=Benny Goodman and his Sextet - Blue Lou
TTITLE16=George Shearing - Bop, Look And Listen
TTITLE17=Stan Goetz Quartet - Indian Summer
TTITLE18=Frank Sinatra - It All Depends On You
TTITLE19=Charlie Norman - Anitra Dance Boogie
TTITLE20=Charlie Parker And Strings - Just Friends
TTITLE21=Lester Young - Crazy Over Jazz
EXTD=YEAR: 1949
EXTT0=
EXTT1=
EXTT2=
EXTT3=
EXTT4=
EXTT5=
EXTT6=
EXTT7=
EXTT8=
EXTT9=
EXTT10=
EXTT11=
EXTT12=
EXTT13=
EXTT14=
EXTT15=
EXTT16=
EXTT17=
EXTT18=
EXTT19=
EXTT20=
EXTT21=
PLAYORDER=
